<svg id="Layer_2" data-name="Layer 2" xmlns="http://www.w3.org/2000/svg" viewBox="0 0 192.73 207.93">
    <g id="Layer_2-2" data-name="Layer 2">
        <g>
            <path d="m13.77,167.77c-7.6,0-13.77-6.16-13.77-13.77V53.85c0-7.6,6.16-13.77,13.77-13.77s13.77,6.16,13.77,13.77v100.16c0,7.6-6.16,13.77-13.77,13.77Z" className='fill-orange' />
            <path d="m178.96,167.77c-7.6,0-13.77-6.16-13.77-13.77V53.93c0-7.6,6.16-13.77,13.77-13.77s13.77,6.16,13.77,13.77v100.07c0,7.6-6.16,13.77-13.77,13.77Z" />
            <path d="m96.36,207.93c-7.6,0-13.77-6.16-13.77-13.77V13.77c0-7.6,6.16-13.77,13.77-13.77s13.77,6.16,13.77,13.77v180.4c0,7.6-6.16,13.77-13.77,13.77Z" />
        </g>
    </g>
</svg>